# xmcd
#
# Track frame offsets:
#	150
#	20758
#	35889
#	52353
#	66474
#	76689
#	88686
#	103076
#	122541
#	136320
#
# Disc length: 2231 seconds
#
# Revision: 0
# Processed by: cddbd v1.5.2PL0 Copyright (c) Steve Scherf et al.
# Submitted via: audiograbber 1.83.01
#
DISCID=8f08b50a
DTITLE=Whiskey Daredevils - Whiskey Daredevils III
DYEAR=2013
DGENRE=Rock and Roll
TTITLE0=Swim the lake of fire
TTITLE1=Dragstrip courage
TTITLE2=Honest man
TTITLE3=In that order
TTITLE4=Corina
TTITLE5=Never again
TTITLE6=Jackie van Hamm
TTITLE7=Gentleman caller
TTITLE8=One less than .45
TTITLE9=Willie Nelson
EXTD=
EXTT0=
EXTT1=
EXTT2=
EXTT3=
EXTT4=
EXTT5=
EXTT6=
EXTT7=
EXTT8=
EXTT9=
PLAYORDER=
